<svg width="52" height="52" viewBox="0 0 52 52" fill="none" xmlns="http://www.w3.org/2000/svg">
<path d="M11.8333 51.5V45.8333H23.1667V37.05C20.8528 36.5306 18.7873 35.5512 16.9702 34.1118C15.1531 32.6725 13.8186 30.8658 12.9667 28.6917C9.425 28.2667 6.46228 26.7206 4.0785 24.0535C1.69472 21.3864 0.501889 18.2574 0.5 14.6667V11.8333C0.5 10.275 1.05533 8.94144 2.166 7.83267C3.27667 6.72389 4.61022 6.16856 6.16667 6.16667H11.8333V0.5H40.1667V6.16667H45.8333C47.3917 6.16667 48.7262 6.722 49.8368 7.83267C50.9475 8.94333 51.5019 10.2769 51.5 11.8333V14.6667C51.5 18.2556 50.3072 21.3845 47.9215 24.0535C45.5358 26.7225 42.5731 28.2686 39.0333 28.6917C38.1833 30.8639 36.8498 32.6706 35.0327 34.1118C33.2156 35.5531 31.1491 36.5324 28.8333 37.05V45.8333H40.1667V51.5H11.8333ZM11.8333 22.6V11.8333H6.16667V14.6667C6.16667 16.4611 6.68611 18.0789 7.725 19.5202C8.76389 20.9614 10.1333 21.988 11.8333 22.6ZM26 31.6667C28.3611 31.6667 30.3681 30.8403 32.0208 29.1875C33.6736 27.5347 34.5 25.5278 34.5 23.1667V6.16667H17.5V23.1667C17.5 25.5278 18.3264 27.5347 19.9792 29.1875C21.6319 30.8403 23.6389 31.6667 26 31.6667ZM40.1667 22.6C41.8667 21.9861 43.2361 20.9586 44.275 19.5173C45.3139 18.0761 45.8333 16.4592 45.8333 14.6667V11.8333H40.1667V22.6Z" fill="#CACACA"/>
</svg>
