<svg width="50" height="47" viewBox="0 0 50 47" fill="none" xmlns="http://www.w3.org/2000/svg">
<path d="M0 4.6875C0 3.4443 0.49386 2.25201 1.37294 1.37294C2.25201 0.49386 3.4443 0 4.6875 0L10.9375 0C12.1807 0 13.373 0.49386 14.2521 1.37294C15.1311 2.25201 15.625 3.4443 15.625 4.6875V10.9375C15.625 12.1807 15.1311 13.373 14.2521 14.2521C13.373 15.1311 12.1807 15.625 10.9375 15.625H4.6875C3.4443 15.625 2.25201 15.1311 1.37294 14.2521C0.49386 13.373 0 12.1807 0 10.9375L0 4.6875ZM0 25C0 23.3424 0.65848 21.7527 1.83058 20.5806C3.00269 19.4085 4.5924 18.75 6.25 18.75H43.75C45.4076 18.75 46.9973 19.4085 48.1694 20.5806C49.3415 21.7527 50 23.3424 50 25V40.625C50 42.2826 49.3415 43.8723 48.1694 45.0444C46.9973 46.2165 45.4076 46.875 43.75 46.875H6.25C4.5924 46.875 3.00269 46.2165 1.83058 45.0444C0.65848 43.8723 0 42.2826 0 40.625V25ZM3.125 34.375V40.625C3.125 41.4538 3.45424 42.2487 4.04029 42.8347C4.62634 43.4208 5.4212 43.75 6.25 43.75H43.75C44.5788 43.75 45.3737 43.4208 45.9597 42.8347C46.5458 42.2487 46.875 41.4538 46.875 40.625V34.375H3.125ZM46.875 31.25V25C46.875 24.1712 46.5458 23.3763 45.9597 22.7903C45.3737 22.2042 44.5788 21.875 43.75 21.875H6.25C5.4212 21.875 4.62634 22.2042 4.04029 22.7903C3.45424 23.3763 3.125 24.1712 3.125 25V31.25H46.875ZM6.25 26.5625C6.25 26.1481 6.41462 25.7507 6.70765 25.4576C7.00067 25.1646 7.3981 25 7.8125 25H35.9375C36.3519 25 36.7493 25.1646 37.0424 25.4576C37.3354 25.7507 37.5 26.1481 37.5 26.5625C37.5 26.9769 37.3354 27.3743 37.0424 27.6674C36.7493 27.9604 36.3519 28.125 35.9375 28.125H7.8125C7.3981 28.125 7.00067 27.9604 6.70765 27.6674C6.41462 27.3743 6.25 26.9769 6.25 26.5625ZM6.25 39.0625C6.25 38.6481 6.41462 38.2507 6.70765 37.9576C7.00067 37.6646 7.3981 37.5 7.8125 37.5H26.5625C26.9769 37.5 27.3743 37.6646 27.6674 37.9576C27.9604 38.2507 28.125 38.6481 28.125 39.0625C28.125 39.4769 27.9604 39.8743 27.6674 40.1674C27.3743 40.4604 26.9769 40.625 26.5625 40.625H7.8125C7.3981 40.625 7.00067 40.4604 6.70765 40.1674C6.41462 39.8743 6.25 39.4769 6.25 39.0625Z" fill="#CCCCAA"/>
</svg>
