<svg width="18" height="22" viewBox="0 0 18 22" fill="none" xmlns="http://www.w3.org/2000/svg">
<path d="M9.68 5.88002C10.38 5.64002 10.9 4.98002 10.98 4.24002C11.03 3.77002 10.93 3.33002 10.7 2.97002L9.42 0.750024C9.37518 0.674591 9.31151 0.61211 9.23525 0.568715C9.15898 0.52532 9.07275 0.502502 8.985 0.502502C8.89725 0.502502 8.81102 0.52532 8.73475 0.568715C8.65849 0.61211 8.59482 0.674591 8.55 0.750024L7.27 2.97002C7.1 3.27002 7 3.62002 7 4.00002C7 5.32002 8.3 6.35002 9.68 5.88002ZM13.53 15.92L12.53 14.92L11.45 15.99C10.15 17.29 7.87 17.3 6.56 15.99L5.49 14.92L4.4 15.99C3.75 16.64 2.88 17 1.96 17C1.23 17 0.56 16.77 0 16.39V20C0 21.1 0.9 22 2 22H16C17.1 22 18 21.1 18 20V16.39C17.25 16.9 16.29 17.14 15.26 16.91C14.6 16.77 14.01 16.4 13.53 15.92ZM15 9.00002H10V8.00002C10 7.45002 9.55 7.00002 9 7.00002C8.45 7.00002 8 7.45002 8 8.00002V9.00002H3C1.34 9.00002 0 10.34 0 12V13.46C0 14.31 0.5 15.13 1.31 15.4C2.04 15.64 2.83 15.46 3.34 14.94L5.48 12.81L7.61 14.94C8.37 15.7 9.62 15.7 10.38 14.94L12.52 12.81L14.65 14.94C15.08 15.37 15.68 15.57 16.3 15.49C17.29 15.36 17.99 14.43 17.99 13.43V12.01C17.9936 11.6154 17.9188 11.2241 17.7701 10.8586C17.6213 10.4931 17.4015 10.1607 17.1234 9.88076C16.8453 9.6008 16.5145 9.3788 16.15 9.22762C15.7855 9.07644 15.3946 8.99908 15 9.00002Z" fill="#1877F2"/>
</svg>
