<svg width="54" height="54" viewBox="0 0 54 54" fill="none" xmlns="http://www.w3.org/2000/svg">
<path d="M7.57185 23.3571C7.57185 21.7469 8.21151 20.2026 9.35013 19.064C10.4887 17.9254 12.033 17.2857 13.6433 17.2857C15.2535 17.2857 16.7978 17.9254 17.9364 19.064C19.075 20.2026 19.7147 21.7469 19.7147 23.3571C19.7147 24.9674 19.075 26.5117 17.9364 27.6503C16.7978 28.7889 15.2535 29.4286 13.6433 29.4286C12.033 29.4286 10.4887 28.7889 9.35013 27.6503C8.21151 26.5117 7.57185 24.9674 7.57185 23.3571ZM13.6433 20.9286C12.9992 20.9286 12.3815 21.1844 11.926 21.6399C11.4706 22.0953 11.2147 22.7131 11.2147 23.3571C11.2147 24.0012 11.4706 24.619 11.926 25.0744C12.3815 25.5299 12.9992 25.7857 13.6433 25.7857C14.2874 25.7857 14.9051 25.5299 15.3605 25.0744C15.816 24.619 16.0718 24.0012 16.0718 23.3571C16.0718 22.7131 15.816 22.0953 15.3605 21.6399C14.9051 21.1844 14.2874 20.9286 13.6433 20.9286ZM13.6433 34.2857C12.033 34.2857 10.4887 34.9254 9.35013 36.064C8.21151 37.2026 7.57185 38.7469 7.57185 40.3572C7.57185 41.9674 8.21151 43.5117 9.35013 44.6503C10.4887 45.7889 12.033 46.4286 13.6433 46.4286C15.2535 46.4286 16.7978 45.7889 17.9364 44.6503C19.075 43.5117 19.7147 41.9674 19.7147 40.3572C19.7147 38.7469 19.075 37.2026 17.9364 36.064C16.7978 34.9254 15.2535 34.2857 13.6433 34.2857ZM11.2147 40.3572C11.2147 39.7131 11.4706 39.0953 11.926 38.6399C12.3815 38.1844 12.9992 37.9286 13.6433 37.9286C14.2874 37.9286 14.9051 38.1844 15.3605 38.6399C15.816 39.0953 16.0718 39.7131 16.0718 40.3572C16.0718 41.0012 15.816 41.619 15.3605 42.0744C14.9051 42.5299 14.2874 42.7857 13.6433 42.7857C12.9992 42.7857 12.3815 42.5299 11.926 42.0744C11.4706 41.619 11.2147 41.0012 11.2147 40.3572ZM24.5718 22.75C24.5718 22.2669 24.7637 21.8036 25.1053 21.4621C25.4469 21.1205 25.9102 20.9286 26.3933 20.9286H44.6076C45.0906 20.9286 45.5539 21.1205 45.8955 21.4621C46.2371 21.8036 46.429 22.2669 46.429 22.75C46.429 23.2331 46.2371 23.6964 45.8955 24.038C45.5539 24.3795 45.0906 24.5714 44.6076 24.5714H26.3933C25.9102 24.5714 25.4469 24.3795 25.1053 24.038C24.7637 23.6964 24.5718 23.2331 24.5718 22.75ZM26.3933 37.9286C25.9102 37.9286 25.4469 38.1205 25.1053 38.4621C24.7637 38.8036 24.5718 39.2669 24.5718 39.75C24.5718 40.2331 24.7637 40.6964 25.1053 41.038C25.4469 41.3795 25.9102 41.5714 26.3933 41.5714H44.6076C45.0906 41.5714 45.5539 41.3795 45.8955 41.038C46.2371 40.6964 46.429 40.2331 46.429 39.75C46.429 39.2669 46.2371 38.8036 45.8955 38.4621C45.5539 38.1205 45.0906 37.9286 44.6076 37.9286H26.3933ZM7.57185 10.6071C7.57185 10.1241 7.76375 9.66079 8.10533 9.3192C8.44692 8.97762 8.9102 8.78572 9.39328 8.78572H44.6076C45.0906 8.78572 45.5539 8.97762 45.8955 9.3192C46.2371 9.66079 46.429 10.1241 46.429 10.6071C46.429 11.0902 46.2371 11.5535 45.8955 11.8951C45.5539 12.2367 45.0906 12.4286 44.6076 12.4286H9.39328C8.9102 12.4286 8.44692 12.2367 8.10533 11.8951C7.76375 11.5535 7.57185 11.0902 7.57185 10.6071ZM9.39328 0.285721C6.97791 0.285721 4.66147 1.24522 2.95355 2.95314C1.24563 4.66106 0.286133 6.9775 0.286133 9.39286V44.6072C0.286133 47.0225 1.24563 49.339 2.95355 51.0469C4.66147 52.7548 6.97791 53.7143 9.39328 53.7143H44.6076C47.0229 53.7143 49.3394 52.7548 51.0473 51.0469C52.7552 49.339 53.7147 47.0225 53.7147 44.6072V9.39286C53.7147 6.9775 52.7552 4.66106 51.0473 2.95314C49.3394 1.24522 47.0229 0.285721 44.6076 0.285721H9.39328ZM3.92899 9.39286C3.92899 7.94365 4.50469 6.55378 5.52944 5.52903C6.55419 4.50428 7.94406 3.92858 9.39328 3.92858H44.6076C46.0568 3.92858 47.4466 4.50428 48.4714 5.52903C49.4961 6.55378 50.0718 7.94365 50.0718 9.39286V44.6072C50.0718 46.0564 49.4961 47.4462 48.4714 48.471C47.4466 49.4957 46.0568 50.0714 44.6076 50.0714H9.39328C7.94406 50.0714 6.55419 49.4957 5.52944 48.471C4.50469 47.4462 3.92899 46.0564 3.92899 44.6072V9.39286Z" fill="white"/>
</svg>
