<svg width="16" height="16" viewBox="0 0 16 16" fill="none" xmlns="http://www.w3.org/2000/svg">
<g clip-path="url(#clip0_722_334)">
<path d="M0.931666 15.4087C1.21542 15.7162 2.38417 15.18 3.30667 14.75C3.99792 14.4287 6.76417 13.2937 8.13917 12.705C8.51042 12.5462 9.05042 12.3387 9.43917 11.8275C9.78417 11.3725 10.6992 9.44 8.85667 7.4825C6.98667 5.495 5.06042 6.04375 4.34042 6.55375C3.91667 6.85375 3.57167 7.53 3.41667 7.87375C2.76167 9.32625 1.82792 11.9875 1.44792 13.0337C1.16917 13.805 0.650416 15.1037 0.931666 15.4087Z" fill="#FFC107"/>
<path d="M3.23168 8.31128C3.24918 8.52878 3.29293 8.88253 3.44293 9.56378C3.54543 10.0313 3.71293 10.5213 3.84918 10.845C4.25793 11.8188 4.83168 12.2113 5.41293 12.5263C6.40043 13.0613 7.07168 13.1613 7.07168 13.1613L6.26668 13.49C6.26668 13.49 5.77918 13.3888 5.11418 13.0613C4.48043 12.7488 3.82043 12.22 3.33793 11.185C3.12918 10.7363 3.00793 10.3013 2.93793 9.95628C2.85168 9.52878 2.83793 9.28628 2.83793 9.28628L3.23168 8.31128ZM2.24293 10.8463C2.24293 10.8463 2.34293 11.6575 3.01293 12.6813C3.79793 13.8788 4.89418 14.075 4.89418 14.075L4.16543 14.375C4.16543 14.375 3.35168 14.1263 2.57793 13.07C2.09543 12.4113 1.96043 11.6238 1.96043 11.6238L2.24293 10.8463ZM1.54918 12.7688C1.54918 12.7688 1.73168 13.4688 2.13168 13.9913C2.60793 14.615 3.21418 14.7963 3.21418 14.7963L2.65543 15.0438C2.65543 15.0438 2.23168 14.955 1.76793 14.3675C1.41543 13.9213 1.31543 13.4088 1.31543 13.4088L1.54918 12.7688Z" fill="#FF8F00"/>
<path opacity="0.44" d="M1.24516 14.5462C1.22016 14.49 1.22016 14.4262 1.24641 14.3712L4.43016 7.76874L4.95391 9.73749L1.60391 14.5762C1.51391 14.7112 1.31141 14.6937 1.24516 14.5462Z" fill="#FFFDE7"/>
<path d="M5.20644 10.3988C6.69394 12.1388 8.38769 11.9213 8.95144 11.4813C9.51644 11.04 9.96269 9.52376 8.48144 7.81251C6.92894 6.02001 5.17144 6.53126 4.76519 6.91876C4.35894 7.30626 3.84144 8.80251 5.20644 10.3988Z" fill="url(#paint0_linear_722_334)"/>
<path d="M10.3147 11.115C9.77219 10.66 9.48344 10.7412 9.09594 10.9025C8.59594 11.11 7.80969 11.2637 6.74219 10.9025L7.06344 10.1287C7.69719 10.3425 8.15594 10.2387 8.55219 10.005C9.06219 9.70497 9.75969 9.29372 10.8447 10.205C11.2972 10.585 11.7609 10.8375 12.1009 10.7225C12.3484 10.64 12.4797 10.2712 12.5459 9.97747C12.5522 9.95122 12.5622 9.87622 12.5697 9.80997C12.6297 9.35122 12.7297 8.36122 13.4672 7.85497C14.2559 7.31372 15.0847 7.31372 15.0847 7.31372L15.2347 8.80372C14.8534 8.74747 14.5884 8.82497 14.3647 8.94872C13.5222 9.41747 14.2559 11.2175 12.9447 11.8225C11.6834 12.4087 10.6522 11.3975 10.3147 11.115Z" fill="#03A9F4"/>
<path d="M5.67467 9.215L5.13217 8.72875C6.12842 7.61625 5.86592 6.79875 5.67467 6.20375C5.63592 6.08375 5.59967 5.97 5.57592 5.86125C5.49092 5.47625 5.47342 5.14125 5.49967 4.84875C5.11717 4.3725 4.94842 3.87375 4.93717 3.84C4.70467 3.13625 4.87967 2.45 5.28092 1.80625C6.09217 0.5 7.56092 0.5 7.56092 0.5L8.05092 1.81125C7.67842 1.79625 6.45717 1.815 6.08217 2.40625C5.60842 3.15125 5.91967 3.61125 5.94217 3.66375C6.03342 3.545 6.12592 3.45 6.20842 3.37625C6.80717 2.845 7.32717 2.76875 7.65842 2.79875C8.03092 2.8325 8.36842 3.02 8.60967 3.3275C8.87342 3.665 8.98217 4.10375 8.89842 4.5025C8.81717 4.89125 8.55842 5.22 8.16967 5.42875C7.49092 5.79375 6.92592 5.74375 6.54717 5.6175C6.54967 5.62625 6.55092 5.63625 6.55342 5.645C6.56717 5.7075 6.59467 5.795 6.62717 5.89625C6.84842 6.58125 7.25967 7.66875 5.67467 9.215ZM6.59342 4.52375C6.66592 4.57625 6.74217 4.62 6.82092 4.65125C7.08342 4.75625 7.36967 4.72125 7.69467 4.54625C7.88592 4.44375 7.90842 4.33375 7.91592 4.2975C7.93842 4.18875 7.90092 4.05 7.81967 3.94625C7.74842 3.855 7.66592 3.8075 7.56717 3.7975C7.37967 3.78125 7.12592 3.9 6.87217 4.12625C6.75092 4.235 6.65842 4.36875 6.59342 4.52375Z" fill="#F44336"/>
<path d="M7.84656 9.41873L7.07031 9.39748C7.07031 9.39748 7.43906 7.31498 8.63281 6.96498C8.85656 6.89998 9.10156 6.83373 9.34781 6.79748C9.49406 6.77498 9.72531 6.74123 9.83906 6.69873C9.86531 6.50248 9.78281 6.25248 9.69031 5.96873C9.61781 5.74873 9.54281 5.52248 9.50281 5.27498C9.42531 4.79248 9.55406 4.36623 9.86531 4.07248C10.2453 3.71623 10.8591 3.60248 11.5516 3.75998C11.9466 3.84998 12.2378 4.04373 12.4941 4.21373C12.8603 4.45748 13.0741 4.58123 13.5216 4.27998C14.0628 3.91498 13.3553 2.48623 12.9791 1.66123L14.3828 1.07623C14.5716 1.48873 15.4828 3.61123 14.8816 4.82248C14.6791 5.22998 14.3303 5.49998 13.8728 5.60123C12.8778 5.82373 12.2953 5.43623 11.8703 5.15373C11.6691 5.01998 11.4928 4.91498 11.3016 4.85998C9.97281 4.48123 11.8278 6.43623 10.9591 7.31498C10.4378 7.84123 9.16406 7.97998 9.08156 7.99998C8.26156 8.19748 7.84656 9.41873 7.84656 9.41873Z" fill="#F48FB1"/>
<path d="M5.49861 4.84875C5.47486 5.12375 5.46361 5.2875 5.53486 5.645C5.87861 5.8975 6.62736 5.8975 6.62736 5.8975C6.59486 5.79625 6.56611 5.70875 6.55361 5.64625C6.55111 5.6375 6.54986 5.6275 6.54736 5.61875C5.78611 5.23875 5.49861 4.84875 5.49861 4.84875Z" fill="#C92B27"/>
<path d="M3.94094 6.07999L2.64844 5.44624L3.29219 4.51624L4.30594 5.18749L3.94094 6.07999Z" fill="#FFC107"/>
<path d="M2.03613 4.32501C1.37613 4.23626 0.703633 3.67626 0.629883 3.61251L1.27863 2.85126C1.47488 3.01751 1.89113 3.29626 2.16988 3.33376L2.03613 4.32501Z" fill="#FB8C00"/>
<path d="M3.20098 2.65875L2.25098 2.3475C2.35973 2.015 2.38848 1.65625 2.33223 1.31L3.31973 1.15125C3.40098 1.65375 3.35973 2.175 3.20098 2.65875Z" fill="#03A9F4"/>
<path d="M9.13379 1.91565L10.1107 1.7019L10.3928 2.9914L9.41591 3.20515L9.13379 1.91565Z" fill="#FB8C00"/>
<path d="M11.5576 2.22126L10.8701 1.49501C11.2301 1.15376 11.3126 0.707515 11.3126 0.702515L12.3001 0.863765C12.2876 0.942515 12.1614 1.65001 11.5576 2.22126Z" fill="#FFC107"/>
<path d="M11.9395 6.0725L12.8128 5.7995L13.1111 6.754L12.2377 7.027L11.9395 6.0725Z" fill="#FB8C00"/>
<path d="M12.1938 14.1287L11.2 14.0112C11.2425 13.6575 10.9787 13.2237 10.9062 13.1275L11.7063 12.5275C11.7663 12.6062 12.2875 13.3275 12.1938 14.1287Z" fill="#F44336"/>
<path d="M15.0464 12.8613C14.6727 12.805 14.2902 12.7825 13.9127 12.7963L13.8789 11.7963C14.3177 11.7813 14.7614 11.8063 15.1952 11.8725L15.0464 12.8613Z" fill="#FB8C00"/>
<path d="M13.7021 14.2377L14.4046 13.5261L15.3715 14.4809L14.669 15.1924L13.7021 14.2377Z" fill="#F48FB1"/>
<path d="M11.6376 7.91675L12.3601 8.74287L11.534 9.46537L10.8115 8.63925L11.6376 7.91675Z" fill="#F44336"/>
</g>
<defs>
<linearGradient id="paint0_linear_722_334" x1="9.29819" y1="7.72989" x2="5.57731" y2="9.96239" gradientUnits="userSpaceOnUse">
<stop offset="0.024" stop-color="#8F4700"/>
<stop offset="1" stop-color="#703E2D"/>
</linearGradient>
<clipPath id="clip0_722_334">
<rect width="16" height="16" fill="white"/>
</clipPath>
</defs>
</svg>
