<svg width="50" height="60" viewBox="0 0 50 60" fill="none" xmlns="http://www.w3.org/2000/svg">
<path d="M16.4997 32.8333H33.4997M16.4997 44.1667H24.9997M2.33301 7.33334V52.6667C2.33301 54.1696 2.93003 55.6109 3.99274 56.6736C5.05544 57.7363 6.49678 58.3333 7.99967 58.3333H41.9997C43.5026 58.3333 44.9439 57.7363 46.0066 56.6736C47.0693 55.6109 47.6663 54.1696 47.6663 52.6667V19.6357C47.6662 18.8808 47.5153 18.1335 47.2224 17.4377C46.9295 16.7419 46.5005 16.1117 45.9607 15.584L33.3807 3.28167C32.322 2.24654 30.9003 1.66686 29.4197 1.66667H7.99967C6.49678 1.66667 5.05544 2.26369 3.99274 3.3264C2.93003 4.38911 2.33301 5.83045 2.33301 7.33334Z" stroke="white" stroke-width="3" stroke-linecap="round" stroke-linejoin="round"/>
</svg>
