<svg width="44" height="35" viewBox="0 0 44 35" fill="none" xmlns="http://www.w3.org/2000/svg">
<path d="M40.9997 0H36.6664V2.66667H40.6664V32H3.33302V2.66667H7.33302V0H2.99969C2.68801 0.00520882 2.3804 0.0717682 2.09445 0.195877C1.80849 0.319986 1.54979 0.499213 1.33311 0.723321C1.11643 0.947428 0.946021 1.21203 0.831619 1.502C0.717217 1.79198 0.661061 2.10165 0.666358 2.41333V32.2533C0.661061 32.565 0.717217 32.8747 0.831619 33.1647C0.946021 33.4546 1.11643 33.7192 1.33311 33.9433C1.54979 34.1675 1.80849 34.3467 2.09445 34.4708C2.3804 34.5949 2.68801 34.6615 2.99969 34.6667H40.9997C41.3114 34.6615 41.619 34.5949 41.9049 34.4708C42.1909 34.3467 42.4496 34.1675 42.6663 33.9433C42.883 33.7192 43.0534 33.4546 43.1678 33.1647C43.2822 32.8747 43.3383 32.565 43.333 32.2533V2.41333C43.3383 2.10165 43.2822 1.79198 43.1678 1.502C43.0534 1.21203 42.883 0.947428 42.6663 0.723321C42.4496 0.499213 42.1909 0.319986 41.9049 0.195877C41.619 0.0717682 41.3114 0.00520882 40.9997 0Z" fill="#CACACA"/>
</svg>
